<svg width="16" height="16" viewBox="0 0 16 16" fill="black" xmlns="http://www.w3.org/2000/svg">
<path d="M2 5.125V12.75C2 13.2141 2.18437 13.6592 2.51256 13.9874C2.84075 14.3156 3.28587 14.5 3.75 14.5H12.25C12.7141 14.5 13.1592 14.3156 13.4874 13.9874C13.8156 13.6592 14 13.2141 14 12.75V5.125C14 5.09185 13.9868 5.06005 13.9634 5.03661C13.9399 5.01317 13.9082 5 13.875 5H2.125C2.09185 5 2.06005 5.01317 2.03661 5.03661C2.01317 5.06005 2 5.09185 2 5.125ZM10.3438 9.86344L8.35344 11.8534C8.25968 11.9471 8.13255 11.9998 8 11.9998C7.86745 11.9998 7.74032 11.9471 7.64656 11.8534L5.65625 9.86344C5.46594 9.67313 5.44844 9.36344 5.62969 9.16406C5.67519 9.11394 5.73039 9.07358 5.79195 9.04543C5.85351 9.01727 5.92014 9.00191 5.98781 9.00028C6.05549 8.99864 6.12279 9.01076 6.18563 9.03591C6.24848 9.06105 6.30557 9.0987 6.35344 9.14656L7.5 10.2928V7.01406C7.5 6.745 7.70687 6.51406 7.97594 6.50063C8.04354 6.49737 8.1111 6.50787 8.17453 6.5315C8.23796 6.55512 8.29593 6.59138 8.34492 6.63807C8.39392 6.68476 8.43293 6.74091 8.45959 6.80313C8.48625 6.86534 8.49999 6.93232 8.5 7V10.2928L9.64656 9.14656C9.69443 9.0987 9.75152 9.06105 9.81437 9.03591C9.87721 9.01076 9.94451 8.99864 10.0122 9.00028C10.0799 9.00191 10.1465 9.01727 10.2081 9.04543C10.2696 9.07358 10.3248 9.11394 10.3703 9.16406C10.5516 9.36312 10.5341 9.67313 10.3438 9.86344Z" fill="black"/>
<path d="M14 1.5H2C1.44772 1.5 1 1.94772 1 2.5V3C1 3.55228 1.44772 4 2 4H14C14.5523 4 15 3.55228 15 3V2.5C15 1.94772 14.5523 1.5 14 1.5Z" fill="black"/>
</svg>
