<svg width="16" height="16" viewBox="0 0 16 16" fill="none" xmlns="http://www.w3.org/2000/svg">
<path d="M14.3732 1.66406C14.3275 1.61389 14.2721 1.57349 14.2104 1.54532C14.1487 1.51714 14.0819 1.50177 14.0141 1.50014C13.9463 1.4985 13.8788 1.51063 13.8158 1.5358C13.7528 1.56097 13.6956 1.59865 13.6475 1.64656L13.261 2.03125C13.2141 2.07813 13.1878 2.14169 13.1878 2.20797C13.1878 2.27425 13.2141 2.33781 13.261 2.38469L13.6154 2.73844C13.6386 2.76178 13.6662 2.7803 13.6966 2.79293C13.727 2.80557 13.7596 2.81207 13.7925 2.81207C13.8255 2.81207 13.8581 2.80557 13.8885 2.79293C13.9189 2.7803 13.9465 2.76178 13.9697 2.73844L14.3466 2.36344C14.5372 2.17313 14.555 1.86313 14.3732 1.66406ZM12.4794 2.8125L6.83816 8.44375C6.80396 8.47782 6.7791 8.52011 6.76598 8.56656L6.50504 9.34375C6.49879 9.36484 6.49834 9.38722 6.50376 9.40854C6.50917 9.42986 6.52023 9.44932 6.53579 9.46488C6.55134 9.48043 6.5708 9.4915 6.59212 9.49691C6.61344 9.50232 6.63583 9.50188 6.65691 9.49563L7.43348 9.23469C7.47993 9.22156 7.52222 9.1967 7.55629 9.1625L13.1875 3.52063C13.2396 3.46797 13.2689 3.39689 13.2689 3.32281C13.2689 3.24874 13.2396 3.17766 13.1875 3.125L12.8766 2.8125C12.8239 2.75993 12.7525 2.7304 12.678 2.7304C12.6036 2.7304 12.5321 2.75993 12.4794 2.8125Z" fill="black"/>
<path d="M12.0731 6.05188L8.26406 9.86844C8.11684 10.016 7.9359 10.1255 7.73688 10.1875L6.9275 10.4584C6.73542 10.5127 6.53234 10.5147 6.3392 10.4644C6.14606 10.414 5.96985 10.313 5.82871 10.1719C5.68758 10.0308 5.58662 9.85456 5.53626 9.66142C5.4859 9.46828 5.48794 9.26521 5.54219 9.07312L5.81313 8.26375C5.87492 8.06478 5.98421 7.88385 6.13156 7.73656L9.94812 3.92688C9.98311 3.89193 10.0069 3.8474 10.0166 3.7989C10.0263 3.75041 10.0214 3.70014 10.0025 3.65445C9.98357 3.60875 9.95154 3.56969 9.91044 3.5422C9.86934 3.51471 9.82101 3.50002 9.77156 3.5H3.25C2.78587 3.5 2.34075 3.68437 2.01256 4.01256C1.68437 4.34075 1.5 4.78587 1.5 5.25V12.75C1.5 13.2141 1.68437 13.6592 2.01256 13.9874C2.34075 14.3156 2.78587 14.5 3.25 14.5H10.75C11.2141 14.5 11.6592 14.3156 11.9874 13.9874C12.3156 13.6592 12.5 13.2141 12.5 12.75V6.22844C12.5 6.17899 12.4853 6.13066 12.4578 6.08956C12.4303 6.04846 12.3912 6.01643 12.3456 5.99753C12.2999 5.97864 12.2496 5.97371 12.2011 5.98338C12.1526 5.99306 12.1081 6.01689 12.0731 6.05188Z" fill="black"/>
</svg>
