<svg width="16" height="16" viewBox="0 0 16 16" fill="none" xmlns="http://www.w3.org/2000/svg">
<path d="M15.5 4.75C15.5 4.28587 15.3156 3.84076 14.9874 3.51257C14.6592 3.18438 14.2141 3 13.75 3H6.87844C6.73047 3.00048 6.58569 2.95697 6.4625 2.875L5.59375 2.29407C5.30607 2.1017 4.96763 1.99933 4.62156 2H2.25C1.78587 2 1.34075 2.18438 1.01256 2.51257C0.684374 2.84076 0.5 3.28587 0.5 3.75V5.25C0.5 5.31631 0.526339 5.3799 0.573223 5.42678C0.620107 5.47366 0.683696 5.5 0.75 5.5H15.25C15.3163 5.5 15.3799 5.47366 15.4268 5.42678C15.4737 5.3799 15.5 5.31631 15.5 5.25V4.75ZM0.5 12.25C0.5 12.7141 0.684374 13.1593 1.01256 13.4874C1.34075 13.8156 1.78587 14 2.25 14H13.75C14.2141 14 14.6592 13.8156 14.9874 13.4874C15.3156 13.1593 15.5 12.7141 15.5 12.25V6.75C15.5 6.6837 15.4737 6.62011 15.4268 6.57323C15.3799 6.52634 15.3163 6.5 15.25 6.5H0.75C0.683696 6.5 0.620107 6.52634 0.573223 6.57323C0.526339 6.62011 0.5 6.6837 0.5 6.75V12.25Z" fill="black"/>
</svg>
