<svg width="10" height="14" viewBox="0 0 10 14" fill="none" xmlns="http://www.w3.org/2000/svg">
<path d="M9.99999 4C10.0001 3.6493 9.90808 3.30473 9.73304 3.00084C9.558 2.69695 9.30612 2.44443 9.00268 2.26861C8.69924 2.09278 8.35491 1.99984 8.00421 1.9991C7.65351 1.99836 7.30878 2.08985 7.0046 2.26439C6.70043 2.43893 6.44749 2.69038 6.27116 2.99353C6.09484 3.29668 6.00132 3.64086 6 3.99155C5.99868 4.34225 6.08959 4.68713 6.26363 4.9916C6.43766 5.29607 6.68869 5.54942 6.99155 5.72625C6.91999 6.635 6.36405 6.8825 4.6478 7.23937C4.0928 7.35437 3.52499 7.47219 3.00061 7.67469V3.73094C3.3819 3.5108 3.67989 3.17101 3.84837 2.76425C4.01685 2.3575 4.04641 1.90651 3.93246 1.48125C3.81851 1.05598 3.56742 0.680198 3.21813 0.412179C2.86885 0.144161 2.44088 -0.00111389 2.00061 -0.00111389C1.56034 -0.00111389 1.13238 0.144161 0.783088 0.412179C0.4338 0.680198 0.182709 1.05598 0.0687594 1.48125C-0.0451905 1.90651 -0.0156314 2.3575 0.152852 2.76425C0.321335 3.17101 0.619328 3.5108 1.00061 3.73094V10.2691C0.619906 10.4889 0.32224 10.828 0.153649 11.2341C-0.0149425 11.6401 -0.0450647 12.0903 0.0679409 12.5151C0.180946 12.94 0.430783 13.3158 0.778812 13.5844C1.12684 13.853 1.55367 13.9994 1.99328 14.001C2.4329 14.0027 2.86081 13.8594 3.21083 13.5934C3.56085 13.3274 3.81348 12.9535 3.92965 12.5295C4.04581 12.1055 4.01905 11.6551 3.85349 11.2478C3.68792 10.8406 3.39279 10.4992 3.01374 10.2766C3.08842 9.71406 3.51374 9.51625 5.05311 9.19781C5.9103 9.02062 6.79624 8.83719 7.54624 8.35562C8.45249 7.775 8.9378 6.89375 8.99499 5.73406C9.30025 5.55899 9.55392 5.30647 9.73038 5.00201C9.90683 4.69754 9.99983 4.3519 9.99999 4ZM1.99999 0.999999C2.19777 0.999999 2.39111 1.05865 2.55556 1.16853C2.72001 1.27841 2.84818 1.43459 2.92387 1.61732C2.99955 1.80004 3.01936 2.00111 2.98077 2.19509C2.94219 2.38907 2.84695 2.56725 2.70709 2.70711C2.56724 2.84696 2.38906 2.9422 2.19508 2.98078C2.0011 3.01937 1.80003 2.99957 1.6173 2.92388C1.43458 2.84819 1.2784 2.72002 1.16852 2.55557C1.05864 2.39112 0.999986 2.19778 0.999986 2C0.999986 1.73478 1.10534 1.48043 1.29288 1.29289C1.48042 1.10536 1.73477 0.999999 1.99999 0.999999ZM1.99999 13C1.8022 13 1.60887 12.9413 1.44442 12.8315C1.27997 12.7216 1.15179 12.5654 1.07611 12.3827C1.00042 12.2 0.980616 11.9989 1.0192 11.8049C1.05779 11.6109 1.15303 11.4327 1.29288 11.2929C1.43273 11.153 1.61091 11.0578 1.8049 11.0192C1.99888 10.9806 2.19994 11.0004 2.38267 11.0761C2.5654 11.1518 2.72157 11.28 2.83146 11.4444C2.94134 11.6089 2.99999 11.8022 2.99999 12C2.99999 12.2652 2.89463 12.5196 2.70709 12.7071C2.51956 12.8946 2.2652 13 1.99999 13ZM7.99999 5C7.80221 5 7.60886 4.94135 7.44442 4.83147C7.27997 4.72159 7.15179 4.56541 7.07611 4.38268C7.00042 4.19996 6.98062 3.99889 7.0192 3.80491C7.05779 3.61093 7.15303 3.43275 7.29288 3.29289C7.43273 3.15304 7.61091 3.0578 7.8049 3.01921C7.99888 2.98063 8.19994 3.00043 8.38267 3.07612C8.5654 3.15181 8.72157 3.27998 8.83146 3.44443C8.94134 3.60888 8.99999 3.80222 8.99999 4C8.99999 4.26522 8.89463 4.51957 8.70709 4.70711C8.51956 4.89464 8.2652 5 7.99999 5Z" fill="black"/>
</svg>
