<svg width="32" height="32" viewBox="0 0 32 32" fill="none" xmlns="http://www.w3.org/2000/svg">
<rect width="32" height="32" rx="8" fill="white" fill-opacity="0.36"/>
<path d="M16 8.5C16.9946 8.5 17.9484 8.89509 18.6517 9.59835C19.3549 10.3016 19.75 11.2554 19.75 12.25C19.75 13.2446 19.3549 14.1984 18.6517 14.9017C17.9484 15.6049 16.9946 16 16 16C15.0054 16 14.0516 15.6049 13.3483 14.9017C12.6451 14.1984 12.25 13.2446 12.25 12.25C12.25 11.2554 12.6451 10.3016 13.3483 9.59835C14.0516 8.89509 15.0054 8.5 16 8.5ZM16 16.8333C21 16.8333 23.5 19.5531 23.5 21.625V23.1C23.5 23.3209 23.3209 23.5 23.1 23.5H8.9C8.67909 23.5 8.5 23.3209 8.5 23.1V21.625C8.5 19.5531 11 16.8333 16 16.8333Z" fill="white"/>
</svg>
