<svg width="18" height="18" viewBox="0 0 18 18" fill="none" xmlns="http://www.w3.org/2000/svg">
<path fill-rule="evenodd" clip-rule="evenodd" d="M0 7.87193C0 3.53154 3.53154 0 7.87193 0C12.2123 0 15.7439 3.53154 15.7439 7.87193C15.7434 9.61894 15.1584 11.3156 14.0819 12.6915L17.7118 16.3215C18.0961 16.7057 18.0961 17.3286 17.7118 17.7128C17.3276 18.097 16.7047 18.097 16.3205 17.7128L12.6905 14.0829C11.3147 15.1588 9.61849 15.7435 7.87193 15.7439C3.53154 15.7439 0 12.2123 0 7.87193ZM14.0393 6.1764C14.1289 6.50223 13.9032 6.8203 13.5703 6.87835C13.2374 6.93639 12.924 6.71201 12.8271 6.38829C12.6211 5.70019 12.2732 5.0603 11.8036 4.51095C11.201 3.80603 10.4199 3.27612 9.54213 2.9767C8.66439 2.67728 7.72229 2.61936 6.81449 2.80902C6.10702 2.95683 5.44066 3.25075 4.85705 3.66948C4.58249 3.86647 4.19729 3.85254 3.96927 3.60315C3.74125 3.35375 3.75699 2.96407 4.02702 2.76091C4.77602 2.19741 5.64187 1.80386 6.56424 1.61116C7.68682 1.37663 8.85182 1.44825 9.93722 1.81851C11.0226 2.18877 11.9885 2.84406 12.7337 3.71575C13.346 4.43197 13.7909 5.27263 14.0393 6.1764Z" fill="white"/>
</svg>
