<svg width="16" height="14" viewBox="0 0 16 14" fill="none" xmlns="http://www.w3.org/2000/svg">
<path d="M12.3125 14C12.2073 14.0004 12.1046 13.9676 12.0191 13.9062L8.00003 10.9925L3.98097 13.9062C3.8951 13.9685 3.79166 14.0019 3.68558 14.0015C3.57951 14.0011 3.47631 13.967 3.3909 13.9041C3.30549 13.8412 3.2423 13.7528 3.21046 13.6516C3.17862 13.5504 3.17978 13.4417 3.21378 13.3413L4.78128 8.69844L0.718779 5.9125C0.630782 5.85222 0.564368 5.76538 0.529239 5.66467C0.49411 5.56396 0.492107 5.45466 0.523524 5.35273C0.554941 5.2508 0.618131 5.16158 0.70386 5.09812C0.78959 5.03466 0.893367 5.00028 1.00003 5H6.0119L7.5244 0.345313C7.55699 0.24482 7.62056 0.157229 7.70601 0.0951068C7.79146 0.0329846 7.89439 -0.000476837 8.00003 -0.000476837C8.10567 -0.000476837 8.2086 0.0329846 8.29405 0.0951068C8.3795 0.157229 8.44307 0.24482 8.47565 0.345313L9.98815 5.00156H15C15.1068 5.00151 15.2108 5.03565 15.2968 5.09899C15.3828 5.16233 15.4462 5.25153 15.4779 5.35354C15.5095 5.45555 15.5076 5.565 15.4725 5.66587C15.4374 5.76673 15.3709 5.85371 15.2828 5.91406L11.2188 8.69844L12.7853 13.34C12.8107 13.4151 12.8179 13.4953 12.8062 13.5737C12.7945 13.6522 12.7643 13.7267 12.7181 13.7912C12.6719 13.8557 12.611 13.9082 12.5405 13.9445C12.47 13.9808 12.3918 13.9999 12.3125 14Z" fill="black"/>
</svg>
